<svg width="18" height="19" viewBox="0 0 18 19" fill="none" xmlns="http://www.w3.org/2000/svg">
<path d="M16.8175 1.15316C16.791 0.490224 16.2321 -0.0256935 15.5692 0.00082385L4.76604 0.432949C4.10311 0.459466 3.58719 1.01838 3.61371 1.68131C3.64022 2.34425 4.19914 2.86016 4.86207 2.83365L14.4649 2.44953L14.849 12.0523C14.8755 12.7153 15.4344 13.2312 16.0973 13.2047C16.7603 13.1781 17.2762 12.6192 17.2497 11.9563L16.8175 1.15316ZM0.318767 16.0034C-0.131248 16.4909 -0.100847 17.2509 0.386669 17.7009C0.874185 18.1509 1.6342 18.1205 2.08422 17.633L1.20149 16.8182L0.318767 16.0034ZM15.6172 1.20117L14.7345 0.386349L0.318767 16.0034L1.20149 16.8182L2.08422 17.633L16.4999 2.016L15.6172 1.20117Z" fill="#565656"/>
</svg>
